<svg width="54" height="54" viewBox="0 0 54 54" fill="none" xmlns="http://www.w3.org/2000/svg">
<g clip-path="url(#clip0)">
<path d="M8.59599 41.7262L7.70399 41.0112C8.01199 40.6482 8.34399 40.3052 8.69799 39.9832C10.6134 38.3301 12.8479 37.0881 15.263 36.3342C12.7285 34.3022 10.8912 31.53 10.007 28.4042C9.13596 25.3009 9.27216 22.0012 10.396 18.9802C11.5365 15.9317 13.5957 13.3127 16.289 11.4852C19.0188 9.62961 22.2442 8.63927 25.545 8.6432C28.858 8.6432 32.09 9.6352 34.801 11.4852C37.4943 13.3127 39.5535 15.9317 40.694 18.9802C41.818 22.0015 41.9543 25.3016 41.083 28.4052C40.1988 31.531 38.3614 34.3032 35.827 36.3352C38.7166 37.1909 41.3248 38.804 43.381 41.0072L42.491 41.7232C40.783 39.7222 37.997 38.1172 34.438 37.0792L33.312 36.7522L34.266 36.0852C36.8211 34.3135 38.7424 31.7709 39.749 28.8292C40.7404 25.9119 40.752 22.7507 39.782 19.8262C38.7973 16.8771 36.8944 14.3207 34.352 12.5312C31.7742 10.7133 28.6963 9.73929 25.542 9.7432C22.375 9.7432 19.291 10.7202 16.732 12.5322C14.1898 14.3215 12.2869 16.8776 11.302 19.8262C10.332 22.7552 10.343 25.9062 11.335 28.8292C12.3416 31.7709 14.2629 34.3135 16.818 36.0852L17.771 36.7512L16.648 37.0792C14.0124 37.7694 11.5652 39.0424 9.487 40.8042C9.17034 41.0919 8.87271 41.3999 8.59599 41.7262Z" fill="#68C5ED"/>
<path d="M25.545 48.7631C20.6084 48.7684 15.7759 47.3444 11.631 44.6631C7.51299 41.9901 4.30199 38.1901 2.40699 33.7431C0.512265 29.311 0.0144494 24.4065 0.979993 19.6841C1.94599 14.9641 4.33099 10.6281 7.83399 7.22411C11.337 3.82311 15.8 1.50511 20.658 0.566109C25.5143 -0.372692 30.5382 0.108525 35.128 1.95211C39.704 3.79411 43.615 6.91211 46.367 10.9151C49.1103 14.8901 50.5819 19.6044 50.587 24.4341C50.577 30.8841 47.937 37.0681 43.242 41.6291C38.548 46.1891 32.184 48.7561 25.545 48.7641V48.7631ZM25.545 1.22311C20.8369 1.21757 16.2279 2.5756 12.275 5.13311C8.34499 7.68311 5.28399 11.3071 3.47499 15.5481C1.66809 19.7757 1.19365 24.4538 2.11499 28.9581C3.03599 33.4601 5.31099 37.5951 8.65099 40.8411C11.991 44.0871 16.248 46.2981 20.881 47.1941C25.5129 48.0905 30.305 47.6322 34.683 45.8741C39.047 44.1181 42.778 41.1441 45.403 37.3271C48.0201 33.5361 49.4244 29.0397 49.43 24.4331C49.423 18.2791 46.904 12.3801 42.425 8.02811C37.947 3.67811 31.875 1.22911 25.542 1.22211H25.545V1.22311Z" fill="#002E47"/>
<path d="M45.752 37.0981C44.22 37.0981 42.722 37.5401 41.449 38.3671C40.1834 39.1845 39.1901 40.3606 38.596 41.7451C38.0101 43.1166 37.8566 44.6342 38.156 46.0951C38.4597 47.5632 39.1984 48.9059 40.276 49.9481C41.3697 51.0062 42.7484 51.7221 44.243 52.0081C45.745 52.2981 47.303 52.1481 48.718 51.5781C50.1243 51.016 51.3337 50.0519 52.195 48.8061C52.9014 47.7855 53.3376 46.6023 53.4626 45.3673C53.5877 44.1323 53.3975 42.8857 52.91 41.7441C52.5176 40.8267 51.9465 39.9966 51.23 39.3021C50.5062 38.6001 49.6527 38.0458 48.717 37.6701C47.7743 37.2916 46.7678 37.0974 45.752 37.0981ZM44.542 48.5391L40.981 45.0851L42.486 43.6231L44.541 45.6211L49.139 41.1491L50.643 42.6101L44.541 48.5401L44.542 48.5391Z" fill="#68C5ED"/>
</g>
<defs>
<clipPath id="clip0">
<rect width="53" height="53" fill="white" transform="translate(0.5 0.0981445)"/>
</clipPath>
</defs>
</svg>
