<svg width="64" height="54" viewBox="0 0 64 54" fill="none" xmlns="http://www.w3.org/2000/svg">
<g clip-path="url(#clip0)">
<path d="M21.8601 8.74677V31.338L27.4902 36.9681H40.4499C40.9573 36.9619 41.4608 37.0573 41.9308 37.2487C42.4008 37.44 42.8278 37.7235 43.1866 38.0823C43.5454 38.4411 43.8288 38.8681 44.0202 39.3381C44.2115 39.8081 44.307 40.3116 44.3008 40.819L50.8728 34.2482V8.74677H21.8601Z" fill="#FF9A28"/>
<path d="M61.5728 28.9903C60.7124 28.1344 59.548 27.6538 58.3344 27.6538C57.1207 27.6538 55.9564 28.1344 55.096 28.9903L44.6742 39.3181C44.3709 38.4137 43.7906 37.6277 43.0155 37.0716C42.2404 36.5155 41.3099 36.2176 40.3559 36.22H38.0601V8.74674H43.4564C44.024 8.74817 44.5863 8.63741 45.1109 8.42083C45.6356 8.20424 46.1122 7.88611 46.5135 7.4847C46.9148 7.0833 47.2328 6.60654 47.4493 6.08184C47.6657 5.55713 47.7763 4.99483 47.7747 4.42724C47.7858 3.84069 47.6753 3.2582 47.4502 2.71647C47.225 2.17474 46.8901 1.68551 46.4665 1.27961C46.043 0.873702 45.54 0.559918 44.9891 0.358023C44.4383 0.156128 43.8517 0.0704997 43.2661 0.106532C39.3224 0.106532 37.2578 3.48528 36.3183 5.73537C35.3787 3.48287 33.3142 0.106532 29.3705 0.106532C28.7853 0.0706717 28.1991 0.156366 27.6487 0.358217C27.0984 0.560068 26.5957 0.873702 26.1725 1.27937C25.7493 1.68503 25.4147 2.17393 25.1898 2.71528C24.9648 3.25664 24.8544 3.8387 24.8655 4.42483C24.8639 4.99236 24.9745 5.55461 25.1909 6.07925C25.4074 6.60388 25.7254 7.08056 26.1267 7.48187C26.528 7.88318 27.0047 8.2012 27.5294 8.41765C28.054 8.6341 28.6162 8.74471 29.1838 8.74312H34.5777V36.2188H27.7757L21.9541 30.3996H12.0021V27.9556H0.0795441V49.7398H12.0021V46.3599L18.2935 52.65H42.6084L63.9204 31.338L61.5728 28.9915V28.9903ZM43.2661 1.61342C43.6691 1.56195 44.0784 1.60024 44.4648 1.72553C44.8512 1.85082 45.2051 2.06002 45.5012 2.33814C45.7973 2.61626 46.0282 2.95642 46.1774 3.33425C46.3266 3.71208 46.3904 4.11823 46.3642 4.5236C46.3598 5.29365 46.0521 6.03094 45.5078 6.57568C44.9635 7.12042 44.2265 7.42873 43.4564 7.43378H37.1639C37.8204 5.5571 39.6043 1.61342 43.2661 1.61342ZM29.1838 7.43258C28.4131 7.42847 27.6751 7.12058 27.1301 6.57574C26.585 6.03089 26.2768 5.29307 26.2724 4.5224C26.2462 4.11702 26.31 3.71087 26.4592 3.33304C26.6084 2.95521 26.8393 2.61506 27.1354 2.33694C27.4314 2.05881 27.7854 1.84962 28.1718 1.72432C28.5582 1.59903 28.9675 1.56075 29.3705 1.61221C33.0323 1.61221 34.815 5.5559 35.4727 7.43258H29.1838ZM42.0459 51.2431H18.95L12.0021 44.2953V31.8078H21.2976L27.118 37.6281H40.4511C41.2851 37.6408 42.08 37.9842 42.661 38.5828C43.2419 39.1813 43.5614 39.9861 43.5492 40.8202V42.7956H31.1544V44.2037H45.05V41.1008L56.2222 29.9299C56.5118 29.6391 56.856 29.4084 57.235 29.251C57.614 29.0936 58.0204 29.0126 58.4307 29.0126C58.8411 29.0126 59.2475 29.0936 59.6265 29.251C60.0055 29.4084 60.3496 29.6391 60.6393 29.9299L62.0486 31.3392L42.0459 51.2407V51.2431Z" fill="#002E47"/>
</g>
<defs>
<clipPath id="clip0">
<rect width="63.8409" height="53" fill="white" transform="translate(0.0795441 0.0981445)"/>
</clipPath>
</defs>
</svg>
