<svg width="48" height="54" viewBox="0 0 48 54" fill="none" xmlns="http://www.w3.org/2000/svg">
<g clip-path="url(#clip0)">
<path d="M2.26912 42.142H0.975394V35.5883C0.97176 34.3325 1.23476 33.0903 1.74701 31.9437C2.25925 30.7971 3.00907 29.7724 3.94687 28.9372C5.59544 27.4545 7.53351 26.3297 9.63872 25.6338C7.3864 23.7048 5.77909 21.1322 5.03311 18.2621C4.28713 15.392 4.43831 12.3622 5.46628 9.58064C6.49426 6.79905 8.3497 4.39915 10.7828 2.70395C13.216 1.00875 16.1101 0.0996205 19.0755 0.0989384C22.041 0.0982562 24.9355 1.00605 27.3694 2.70013C29.8034 4.39421 31.6599 6.79326 32.6891 9.57438C33.7184 12.3555 33.871 15.3852 33.1263 18.2556C32.3817 21.126 30.7755 23.6995 28.5241 25.6295C34.1282 27.6192 37.1952 31.1259 37.1952 35.5891H35.9007C35.9007 29.9972 30.3165 27.4888 26.9862 26.4897L25.729 26.1134L26.7951 25.3454C29.0668 23.7127 30.762 21.4015 31.6368 18.7443C32.5116 16.087 32.5208 13.2208 31.6632 10.5579C30.8056 7.89509 29.1253 5.57297 26.8642 3.9257C24.6031 2.27843 21.8776 1.39095 19.0801 1.39095C16.2826 1.39095 13.5572 2.27843 11.296 3.9257C9.03491 5.57297 7.35464 7.89509 6.49703 10.5579C5.63941 13.2208 5.64866 16.087 6.52344 18.7443C7.39822 21.4015 9.09342 23.7127 11.3651 25.3454L12.4286 26.1126L11.1731 26.4897C8.83011 27.121 6.66223 28.2791 4.83484 29.8756C4.02702 30.592 3.38057 31.4718 2.93826 32.4568C2.49595 33.4417 2.26787 34.5094 2.26912 35.5891V42.1429V42.142Z" fill="#002E47"/>
<path d="M47.0246 33.8505V52.4778H19.084V28.2803L24.5343 33.8505H47.0246Z" fill="#E54747"/>
</g>
<defs>
<clipPath id="clip0">
<rect width="46.0492" height="53" fill="white" transform="translate(0.975403 0.0981445)"/>
</clipPath>
</defs>
</svg>
